<svg width="140" height="39" viewBox="0 0 140 39" fill="none" xmlns="http://www.w3.org/2000/svg">
<path d="M0 4.0667V7.26172H3.77593H7.55187V4.0667V0.871677H3.77593H0V4.0667Z" fill="#F8F6FA"/>
<path d="M15.1016 19.7512V38.6309H18.8775H22.6534V19.7512V0.871525H18.8775H15.1016V19.7512Z" fill="#F8F6FA"/>
<path d="M29.7417 15.801C29.6836 24.0499 29.7998 32.5313 29.974 34.6807L30.3226 38.6309H34.9118H39.5591L38.6877 37.0043C38.0487 35.7844 37.8164 31.6599 37.6421 18.2989L37.4678 1.16198L33.6338 0.987709L29.7417 0.813435V15.801Z" fill="#F8F6FA"/>
<path d="M85.9746 4.0667V7.26172H89.7505H93.5265V4.0667V0.871677H89.7505H85.9746V4.0667Z" fill="#F8F6FA"/>
<path d="M63.3789 11.27C62.3333 11.5605 60.5906 12.6061 59.603 13.5937C57.9764 15.2783 57.8022 15.7431 57.8022 19.1123C57.8022 22.2493 58.0345 23.1206 59.1383 24.2825C60.5325 25.7928 64.0179 27.1289 68.2586 27.8841C73.2545 28.6974 74.881 31.602 71.1632 33.1123C68.491 34.2742 63.7275 33.2866 61.9847 31.3115C61.2296 30.4401 60.1258 29.9173 59.1383 29.9173C57.5698 29.9173 57.5117 29.9754 57.5117 33.0543V36.1331L60.4744 37.4111C64.8893 39.2119 73.1964 39.1538 76.2752 37.2949C80.5159 34.7389 81.852 30.4982 79.7607 26.1995C78.715 23.8758 75.3457 22.1912 70.6984 21.5522C64.9474 20.6808 62.2752 18.5895 65.1217 17.0792C67.7358 15.7431 72.6155 16.7306 72.6155 18.5895C72.6155 19.2866 73.4868 19.4609 76.3914 19.4609C78.4827 19.4609 80.1673 19.3447 80.1673 19.1704C80.1673 19.0543 79.7607 17.8924 79.2379 16.6144C77.7856 13.0128 74.7067 11.2119 69.5366 10.9796C67.2711 10.8634 64.4827 11.0377 63.3789 11.27Z" fill="#F8F6FA"/>
<path d="M126.871 11.4441C122.863 13.884 123.153 13.7678 123.153 12.4898C123.153 11.4441 122.805 11.328 119.377 11.328H115.602V24.9794V38.6309H119.377H123.153V29.3943C123.153 20.2159 123.153 20.2159 124.664 18.6475C127.22 16.1495 130.647 16.8466 131.809 20.0997C132.158 21.1454 132.448 25.7346 132.448 30.2657V38.6309H136.224H140V28.4649C140 17.0209 139.477 14.7553 136.34 12.4317C134.133 10.8051 128.788 10.2823 126.871 11.4441Z" fill="#F8F6FA"/>
<path d="M0 24.9787V38.6301H3.77593H7.55187V24.9787V11.3272H3.77593H0V24.9787Z" fill="#F8F6FA"/>
<path d="M85.9746 24.9794V38.6309H91.0286H96.0244L94.9207 37.4109C93.9331 36.3072 93.8169 35.0292 93.6427 25.386C93.4684 15.2201 93.5265 14.523 94.6883 12.9545L95.9082 11.328H90.9124H85.9746V24.9794Z" fill="#F8F6FA"/>
<path d="M44.2661 23.7594C44.4403 32.7054 44.5565 33.9834 45.5441 35.0872C46.9964 36.6556 48.2744 36.6556 49.8428 34.971C51.0628 33.693 51.1208 33.1121 51.1208 23.6432V13.6515H47.5773H44.0918L44.2661 23.7594Z" fill="#F8F6FA"/>
<path d="M101.602 16.3819C101.021 17.079 100.789 19.2284 100.789 24.4566C100.789 30.6143 100.963 31.718 101.893 32.7637C103.229 34.2741 105.611 34.3321 106.656 32.938C107.702 31.6019 107.818 17.1371 106.772 16.0915C105.727 15.0458 102.532 15.2201 101.602 16.3819Z" fill="#F8F6FA"/>
</svg>
