<svg width="140" height="34" viewBox="0 0 140 34" fill="none" xmlns="http://www.w3.org/2000/svg">
<path d="M136.163 1.04806C134.497 2.84707 134.298 3.44674 135.197 4.27962C135.597 4.64608 136.097 4.97924 136.297 4.97924C136.496 4.97924 136.83 5.21244 137.063 5.47896C137.596 6.11195 137.796 5.94537 139.028 4.11304C140.294 2.28072 140.294 1.84762 139.195 0.814856C137.996 -0.284541 137.396 -0.21791 136.163 1.04806Z" fill="#F8F6FA"/>
<path d="M21.7927 1.21454C21.5262 1.31448 21.0265 1.61432 20.7266 1.91415C20.1603 2.38056 20.127 3.38002 20.127 13.7743C20.127 26.5007 20.1603 26.6339 22.2591 26.6339C24.1914 26.6339 24.3913 26.1009 24.5245 19.9043C24.6245 13.6744 24.8244 13.1413 27.2564 11.8753C28.7889 11.0758 30.2214 11.3756 31.2542 12.7415C31.8872 13.6077 31.9538 14.274 32.1204 19.8376C32.2869 26.5673 32.3203 26.6339 34.3525 26.6339C36.1848 26.6339 36.4513 25.6345 36.4513 18.7382C36.4513 13.1413 36.3847 12.7082 35.6184 11.0425C34.9521 9.57661 34.5524 9.21015 33.2864 8.64379C31.1542 7.74429 29.122 7.7776 27.1231 8.81037C26.2236 9.24346 25.424 9.7765 25.2908 9.97639C24.6911 10.9758 24.4579 9.94308 24.4579 6.14516V2.0141L23.4585 1.48106C22.9254 1.21454 22.459 0.981333 22.3924 1.01465C22.3257 1.01465 22.0592 1.11459 21.7927 1.21454Z" fill="#F8F6FA"/>
<path d="M133.398 8.51053V10.7093L132.399 9.87645C130.8 8.54385 128.668 7.84423 126.602 8.07744C122.205 8.51053 119.806 11.5755 119.773 16.8393C119.706 22.7694 122.671 26.6339 127.302 26.6339C129.034 26.6339 129.534 26.4673 131.266 25.3346L133.232 24.0353L133.465 24.8682C133.832 26.1675 134.398 26.6339 135.597 26.6339C137.596 26.6339 137.729 25.9676 137.729 15.4734V6.31174H135.564H133.398V8.51053ZM130.733 12.0419C132.332 13.1413 133.065 14.7404 133.065 17.2058C133.065 19.5378 132.799 20.4373 131.699 21.7033C130 23.6356 127.568 23.7022 125.836 21.8699C124.47 20.4373 123.937 18.6716 124.203 16.3729C124.47 14.1408 125.37 12.575 126.835 11.842C128.301 11.1091 129.434 11.1757 130.733 12.0419Z" fill="#F8F6FA"/>
<path d="M5.40221 8.57713C1.97076 9.80978 0.0384885 13.008 0.00517349 17.4722C-0.0281415 19.9042 0.0718035 20.304 1.13788 22.3029C2.20397 24.2352 2.57043 24.5683 4.46939 25.5678C6.46829 26.6006 6.83476 26.6672 9.30007 26.5672C12.465 26.434 14.6638 25.4678 16.163 23.6022C17.5955 21.7699 17.7288 20.5705 16.6294 19.671C15.43 18.7715 14.897 18.7715 14.0308 19.8376C11.1657 23.2024 11.299 23.1358 9.20012 23.1358C7.46774 23.1358 7.13459 23.0359 6.20177 22.0697C4.46939 20.3706 4.06961 16.1063 5.36889 13.5744C5.8353 12.5749 8.00078 11.309 9.13349 11.309C10.2329 11.309 11.6321 12.1751 13.2646 13.8742C14.7304 15.44 14.7971 15.4733 15.6632 14.9736C17.6288 13.8742 17.5622 12.5749 15.4967 10.4095C13.2979 8.11071 8.9336 7.34447 5.40221 8.57713Z" fill="#F8F6FA"/>
<path d="M44.7798 8.51053C40.4821 10.0097 38.5499 13.8076 39.2495 19.4379C39.7825 23.6689 43.5138 26.6339 48.2779 26.6339C50.2101 26.6339 50.9764 26.4673 52.309 25.7677C54.4745 24.635 55.0075 24.1353 56.1402 22.1364C57.0064 20.6372 57.1063 20.1708 57.1063 17.339C57.1063 14.4739 57.0397 14.0741 56.1069 12.475C55.5405 11.5089 54.6077 10.3429 54.008 9.87645C51.6094 8.04412 47.7781 7.47777 44.7798 8.51053ZM50.51 12.1419C51.4761 12.7749 51.8759 13.3745 52.2757 14.7071C52.8753 16.7727 52.9087 17.5056 52.4089 19.5711C51.9758 21.3368 51.3762 22.1364 50.0436 22.836C47.7781 24.002 45.1129 22.8693 44.0802 20.3041C41.8481 14.7404 46.2123 9.21015 50.51 12.1419Z" fill="#F8F6FA"/>
<path d="M60.4387 8.87713C59.7724 9.74332 59.7391 10.0098 59.8391 21.0038C59.939 31.498 59.9723 32.2643 60.572 32.9306C61.4049 33.8634 62.4709 33.8301 63.4038 32.8306C64.1034 32.0644 64.17 31.7312 64.1367 28.1999C64.1034 25.9011 64.2366 24.2687 64.4365 24.1354C64.6031 24.0355 64.7697 24.0688 64.7697 24.2354C64.7697 24.3686 65.4027 24.935 66.2022 25.468C68.0346 26.7007 71.0662 27.0005 72.9319 26.101C74.5976 25.3014 76.6965 23.1027 77.1296 21.6368C77.7292 19.5713 77.8625 16.4063 77.4294 14.2742C76.4299 9.64338 72.1323 7.01149 67.868 8.44404C66.9352 8.74387 65.8691 9.37686 65.436 9.80995C64.6031 10.7095 64.1034 10.6428 64.1034 9.64338C64.1034 8.87713 62.904 7.97762 61.9046 7.97762C61.4715 7.97762 60.8385 8.37741 60.4387 8.87713ZM70.7331 11.8422C72.0657 12.6417 73.1318 14.5074 73.3316 16.473C73.7647 20.704 70.7331 24.1687 67.6015 22.9694C66.5021 22.5696 65.2028 21.237 64.7364 20.0377C64.2366 18.7051 64.4032 15.2403 65.0362 13.9743C66.1689 11.7089 68.8008 10.7095 70.7331 11.8422Z" fill="#F8F6FA"/>
<path d="M81.2948 8.51073C80.8283 8.94382 80.7617 10.5096 80.7617 20.4042C80.7617 26.6674 80.8617 32.1311 80.9616 32.5642C81.1948 33.3637 82.3275 33.7968 83.3603 33.497C84.4264 33.1305 84.7595 31.7979 84.7595 27.5669V23.5025L85.6923 24.3687C87.6912 26.2343 88.6241 26.6341 90.6563 26.6341C92.2887 26.6341 92.9217 26.4342 94.4209 25.5347C95.9867 24.6352 96.4198 24.1355 97.3859 22.2365C98.3854 20.2376 98.5186 19.6713 98.5186 17.3725C98.5186 15.2404 98.3521 14.3742 97.5858 12.7417C96.4531 10.2098 95.4203 9.17703 93.1549 8.47742C90.3231 7.54459 88.1577 8.04432 85.8589 10.1099L84.7595 11.1093V10.2098C84.7595 8.41078 82.4941 7.31139 81.2948 8.51073ZM91.8223 12.1421C93.3881 13.2081 93.8878 14.8739 93.688 18.2387C93.5214 20.4375 93.4214 20.7707 92.422 21.8034C90.9894 23.3026 89.5236 23.6024 87.8578 22.7363C84.4264 21.0039 84.1265 14.3409 87.3914 12.1088C88.9239 11.076 90.2898 11.076 91.8223 12.1421Z" fill="#F8F6FA"/>
<path d="M105.948 8.51059C104.049 9.21021 102.55 10.4429 101.517 12.2419C100.651 13.6744 100.584 14.0742 100.584 17.3058C100.584 21.0037 100.717 21.4701 102.483 23.6689C104.115 25.7011 105.814 26.4341 109.246 26.5673C112.011 26.6673 112.411 26.6007 114.077 25.7345C116.708 24.3685 118.174 21.8699 117.008 20.7039C116.342 20.0376 115.709 20.2375 113.843 21.77C110.678 24.4019 107.28 24.202 105.848 21.3036C105.415 20.504 105.082 19.4712 105.082 19.0715C105.082 18.3052 105.082 18.3052 110.212 18.3052C115.176 18.3052 116.942 18.0387 117.475 17.2058C118.341 15.8399 117.308 12.1752 115.509 10.2763C113.51 8.17744 109.079 7.34456 105.948 8.51059ZM110.845 11.3424C112.378 12.1752 113.41 13.7744 113.41 15.3402C113.41 15.9398 113.144 15.9732 109.246 15.9732C104.582 15.9732 104.548 15.9732 105.581 13.5078C106.447 11.4423 109.013 10.3762 110.845 11.3424Z" fill="#F8F6FA"/>
</svg>
