<svg width="140" height="43" viewBox="0 0 140 43" fill="none" xmlns="http://www.w3.org/2000/svg">
<path d="M55.9313 1.08078C54.3839 2.57659 54.2292 3.76292 55.4155 5.41346C56.3955 6.85769 59.2324 6.96085 60.4187 5.61978C61.4503 4.48503 61.5535 1.75131 60.625 0.977619C60.3156 0.668141 59.3871 0.307084 58.6134 0.100766C57.5303 -0.157132 56.9113 0.0491863 55.9313 1.08078Z" fill="#F8F6FA"/>
<path d="M0.174081 1.02902C0.0193423 1.39007 -0.0322372 7.94068 0.0193423 15.5745L0.174081 29.5009L2.6499 29.6557L5.07414 29.8104V15.1102V0.358481H2.75306C1.30883 0.358481 0.27724 0.616378 0.174081 1.02902Z" fill="#F8F6FA"/>
<path d="M119.426 0.719604C119.219 0.874342 119.064 7.52811 119.064 15.4198V29.7589H121.592H124.119L124.274 23.002C124.48 16.3482 124.48 16.2451 125.925 15.0071C127.73 13.4598 130.773 13.3566 132.527 14.7493C133.713 15.6777 133.765 16.0903 133.919 22.7441L134.126 29.7589H136.705H139.284L139.077 22.1251C138.974 15.6777 138.768 14.285 137.891 12.7892C135.209 8.19864 130.67 7.42495 124.635 10.5713C124.377 10.6745 124.222 8.40496 124.222 5.56808V0.358546H122.004C120.767 0.358546 119.58 0.513285 119.426 0.719604Z" fill="#F8F6FA"/>
<path d="M65.6271 3.71122C65.4724 4.12386 65.4208 5.51651 65.5239 6.80599C65.6787 9.02392 65.6271 9.12708 64.286 9.12708C62.945 9.12708 62.8418 9.28182 62.8418 11.4482C62.8418 13.5629 62.945 13.7692 64.1313 13.7692H65.4208V21.7641V29.7589H67.9998H70.5787V21.7641V13.7692H72.1777C73.6735 13.7692 73.7251 13.7177 73.5704 11.5513C73.4156 9.59129 73.2609 9.38497 72.023 9.23024C70.6303 9.0755 70.5787 8.97234 70.5787 5.98072V2.93753H68.2577C66.6587 2.93753 65.8334 3.19542 65.6271 3.71122Z" fill="#F8F6FA"/>
<path d="M139.025 8.66269C139.386 9.02375 139.799 9.17849 139.954 9.02375C140.108 8.86901 139.85 8.55953 139.335 8.40479C138.612 8.09531 138.561 8.14689 139.025 8.66269Z" fill="#F8F6FA"/>
<path d="M14.4612 9.17884C11.8822 9.95253 8.47799 13.6147 7.65272 16.5031C6.31165 21.4548 8.94221 27.1801 13.5328 29.2949C18.3297 31.4612 24.8803 29.7075 27.6656 25.478C28.8519 23.6727 29.0582 22.8474 29.0582 19.4432C29.0582 15.9358 28.9035 15.2652 27.5624 13.3568C24.8803 9.43673 19.516 7.73461 14.4612 9.17884ZM21.2181 14.3368C24.8287 15.9873 25.1382 22.1253 21.7339 24.3432C20.0834 25.4264 16.7307 25.4264 15.0802 24.3432C10.438 21.3516 12.5528 13.7694 18.0202 13.7694C19.1034 13.7694 20.5476 14.0273 21.2181 14.3368Z" fill="#F8F6FA"/>
<path d="M37.8269 9.59138C35.4027 10.7261 32.7205 13.4083 31.9468 15.4714C30.8637 18.2567 31.2763 22.0736 32.9268 24.9105C36.589 31.358 46.1312 32.1317 50.825 26.4579C53.4555 23.26 54.1261 19.6494 52.8366 15.9357C52.2692 14.3367 52.2176 13.7177 52.6818 13.3567C53.2492 12.8409 53.5071 9.90085 52.9913 9.43664C52.8881 9.33348 49.8965 9.12716 46.3375 8.92084C40.6638 8.66294 39.6322 8.71452 37.8269 9.59138ZM45.9765 14.8525C47.8849 16.2967 48.7618 19.3915 47.8849 21.5063C46.9049 23.8789 45.048 25.1168 42.3659 25.1168C40.4059 25.1168 39.7869 24.8589 38.2911 23.3631C36.8469 21.9189 36.5374 21.1968 36.5374 19.4431C36.5374 17.6894 36.8469 16.9673 38.2911 15.523C39.7869 14.0272 40.4059 13.7693 42.3659 13.7693C43.9133 13.7693 45.0996 14.1304 45.9765 14.8525Z" fill="#F8F6FA"/>
<path d="M80.3814 9.74619C75.636 12.1704 73.4181 17.1737 74.7076 22.5895C76.5645 30.1717 86.7772 32.8539 93.4826 27.4896C94.4626 26.6643 94.4626 26.6127 92.812 24.9106L91.1099 23.1569L89.3046 24.3948C86.5709 26.2001 83.373 26.0969 81.3614 24.1369C80.5361 23.3116 79.8656 22.3832 79.8656 22.0737C79.8656 21.7127 82.4961 21.5063 87.912 21.5063H96.01L95.6489 18.8758C94.5657 10.6746 87.2414 6.29036 80.3814 9.74619ZM88.5825 14.5947C91.3678 16.9158 90.8004 17.38 85.0235 17.38C79.2466 17.38 78.6792 16.9158 81.4645 14.5947C83.6309 12.7894 86.4162 12.7894 88.5825 14.5947Z" fill="#F8F6FA"/>
<path d="M103.849 9.591C93.2239 14.4911 96.7313 30.2744 108.491 30.2744C111.277 30.2744 114.681 28.9849 116.074 27.386C116.899 26.4575 116.847 26.3028 115.403 24.7038L113.856 23.0017L112.05 24.0849C107.46 26.9733 102.147 23.827 102.766 18.669C103.282 14.4395 108.646 12.17 111.999 14.8005C113.701 16.1416 113.959 16.09 115.713 14.2847C117.157 12.7889 117.157 12.7374 116.177 11.6542C113.649 8.76573 107.769 7.78571 103.849 9.591Z" fill="#F8F6FA"/>
<path d="M55.623 19.4429V29.8104L58.0989 29.6557L60.5231 29.5009V19.4429V9.38491L58.0989 9.23017L55.623 9.07543V19.4429Z" fill="#F8F6FA"/>
<path d="M31.3809 32.4411C31.4324 34.4527 33.2377 37.7538 35.2493 39.4043C41.7999 44.8202 51.4453 41.3644 53.3022 32.9569L53.6632 31.3063H51.0843C48.6084 31.3063 48.5569 31.3579 47.7832 33.3179C45.8231 38.3212 37.9315 37.9601 36.7967 32.8021C36.4872 31.4095 36.2809 31.3063 33.9083 31.3063C31.6388 31.3063 31.3809 31.4095 31.3809 32.4411Z" fill="#F8F6FA"/>
</svg>
