<svg width="140" height="46" viewBox="0 0 140 46" fill="none" xmlns="http://www.w3.org/2000/svg">
<path d="M116.549 0.136524C113.23 0.692474 110.248 2.86574 108.782 5.78027C107.957 7.43127 107.772 8.32417 107.67 11.3398L107.569 14.2038L105.598 14.288C103.964 14.3554 103.56 14.4228 103.155 14.726C102.414 15.2651 102.06 16.0906 102.161 17.0172C102.347 18.7188 103.088 19.1905 105.716 19.3253L107.569 19.4263L107.654 31.2192C107.721 40.1987 107.788 43.0964 107.94 43.3828C108.344 44.0735 109.136 44.4947 110.113 44.5115C111.09 44.5115 111.629 44.242 112.27 43.3659C112.623 42.9111 112.623 42.7257 112.674 31.1182L112.725 19.3421H119.868H127.011L127.061 28.052C127.129 37.6716 127.129 37.5706 128.257 39.8618C128.931 41.2264 130.852 43.2985 132.183 44.1072C133.834 45.1012 135.114 45.4381 137.17 45.455C138.854 45.455 138.989 45.4213 139.478 45.0169C139.983 44.5958 140 44.5452 140 43.1469C140 41.7823 139.983 41.6981 139.494 41.2432C138.989 40.7715 138.366 40.5693 137.372 40.5693C135.973 40.5693 133.901 39.289 133.008 37.8738C132.115 36.4587 132.082 36.088 132.082 27.395V19.3421H134.491C137.321 19.3421 137.945 19.2073 138.635 18.3987C139.09 17.8933 139.157 17.6911 139.157 16.8487C139.157 16.1749 139.056 15.72 138.821 15.3325C138.281 14.4396 137.675 14.288 134.693 14.288H132.082V8.81273C132.082 4.51674 132.031 3.20267 131.846 2.76466C131.121 1.04626 128.426 0.911484 127.432 2.56249C127.146 3.03421 127.112 3.55647 127.061 8.67795L127.011 14.288H119.851H112.708V11.8789C112.708 9.58769 112.725 9.43607 113.196 8.44209C114.14 6.45415 115.808 5.29171 118.132 5.039C120.171 4.80314 120.912 4.04502 120.761 2.27609C120.609 0.355534 119.261 -0.318348 116.549 0.136524Z" fill="#F8F6FA"/>
<path d="M39.1708 18.9375C36.509 19.5271 34.1336 20.8918 32.2299 22.9302C25.6764 29.9386 28.5235 41.6641 37.5367 44.8313C38.8844 45.3031 39.2214 45.3536 41.6473 45.421C44.1238 45.4884 44.4102 45.4547 45.8591 45.0504C48.7062 44.2249 51.5534 42.2201 51.7892 40.8723C51.9577 39.9289 51.6376 39.0023 50.9637 38.3958C50.4415 37.9409 50.2393 37.8735 49.397 37.8735C48.403 37.8735 48.3019 37.9241 46.752 39.036C43.4668 41.3777 39.154 40.9902 36.2226 38.042C33.5945 35.4139 32.9543 31.8255 34.5547 28.5066C35.9025 25.6595 38.9518 23.7221 42.0348 23.7221C44.0228 23.7221 45.3874 24.2612 47.847 25.9796C48.3861 26.367 48.7399 26.485 49.3464 26.485C50.9637 26.485 51.9745 25.3899 51.8398 23.7221C51.7724 22.846 51.7218 22.7618 50.7279 21.852C49.5149 20.7233 47.5943 19.6788 45.8254 19.1734C44.1238 18.6848 40.8387 18.5669 39.1708 18.9375Z" fill="#F8F6FA"/>
<path d="M65.2807 18.9205C64.7247 19.0553 63.9329 19.2743 63.5117 19.4259C62.6357 19.7292 60.7151 20.7905 60.5467 21.0432C60.4961 21.1443 60.2266 20.959 59.9233 20.6052C58.4408 18.9205 55.779 19.7966 55.5094 22.0709C55.4589 22.5595 55.4252 27.4451 55.4589 32.9035C55.5094 42.1694 55.5263 42.8938 55.8127 43.315C56.2844 44.0394 57.0762 44.4437 58.0028 44.4437C58.9967 44.4437 59.7212 44.0899 60.1423 43.3824C60.4624 42.877 60.4793 42.4895 60.4793 36.7446C60.4793 32.9541 60.5467 30.3091 60.6646 29.7531C60.9678 28.3043 61.7597 26.8723 62.8547 25.8278C64.9437 23.823 67.5887 23.2334 70.3179 24.1262C71.0424 24.3621 71.8173 24.5643 72.0532 24.5643C72.6428 24.5643 73.4852 24.1599 73.9569 23.6377C74.3275 23.2502 74.3781 23.0312 74.3781 22.0372C74.3781 20.9927 74.3275 20.8242 73.8895 20.3694C72.5586 18.9879 68.2626 18.2635 65.2807 18.9205Z" fill="#F8F6FA"/>
<path d="M85.7522 18.9207C78.4069 20.4033 73.7571 27.5127 75.2902 34.9254C76.301 39.8447 80.1084 43.9048 84.8424 45.1178C86.645 45.5895 90.2335 45.5895 92.0192 45.1347C93.3838 44.7809 94.9506 44.0565 96.1805 43.2141C96.7701 42.8098 96.9554 42.7593 97.006 42.9446C97.0565 43.0793 97.3766 43.4668 97.7135 43.8038C98.3032 44.3934 98.4211 44.444 99.314 44.444C100.493 44.444 101.251 44.0228 101.673 43.1636C101.908 42.6413 101.942 41.8832 101.892 36.1384C101.824 29.248 101.807 29.0963 100.864 26.7714C99.6341 23.7053 96.3489 20.5886 93.2322 19.4935C90.941 18.6849 88.0265 18.4659 85.7522 18.9207ZM90.84 24.0591C95.1191 25.3731 97.7472 29.9555 96.6185 34.1504C95.6582 37.7894 92.154 40.5691 88.5319 40.5691C83.9832 40.5691 80.0242 36.6438 80.0242 32.1625C80.041 26.5861 85.5837 22.4249 90.84 24.0591Z" fill="#F8F6FA"/>
<path d="M1.43199 19.9322C1.06136 20.067 0.589645 20.3871 0.387481 20.6398L0 21.1115V28.2715C0 36.3075 0.016847 36.4591 1.17929 38.8009C2.71237 41.9176 5.71113 44.3604 9.01314 45.2027C10.3609 45.5397 14.0841 45.5397 15.415 45.2027C16.5606 44.8995 18.2116 44.1751 19.1045 43.5517L19.711 43.1474L20.368 43.7876C20.9745 44.3941 21.0924 44.4446 21.9853 44.4446C23.1478 44.4446 23.9227 44.0234 24.3271 43.1979C24.5629 42.6925 24.5966 41.4122 24.5966 32.1126C24.5966 22.4593 24.5798 21.5664 24.2934 21.0273C23.9059 20.2692 23.0635 19.7806 22.0864 19.7806C21.0588 19.7806 20.3006 20.2523 19.8795 21.1115C19.5594 21.7686 19.5425 22.1729 19.5425 28.0693C19.5425 33.9826 19.5257 34.4038 19.1887 35.3809C18.4812 37.5205 17.2008 38.9188 15.0612 39.9296C13.983 40.4519 13.764 40.4856 12.1972 40.4856C10.5799 40.4856 10.462 40.4519 9.21531 39.8454C7.53061 39.0199 6.43555 37.9248 5.61005 36.2401L4.96986 34.9429L4.88563 28.1199C4.80139 21.7517 4.78455 21.2463 4.4813 20.8083C3.87481 19.8985 2.5439 19.5279 1.43199 19.9322Z" fill="#F8F6FA"/>
</svg>
