<svg width="17" height="30" viewBox="0 0 17 30" fill="none" xmlns="http://www.w3.org/2000/svg">
<path d="M4.60682 6.26896C2.59141 9.7753 0.947261 12.6511 0.959047 12.6629C0.970833 12.6688 2.61498 11.8968 4.6245 10.948L8.27228 9.21547L11.8434 10.9009C13.8058 11.832 15.4676 12.6157 15.5266 12.6511C15.6268 12.6982 15.6209 12.6747 15.4912 12.4507C15.1435 11.8496 8.39014 0.0989809 8.33121 0.00469303C8.28406 -0.0837021 7.61226 1.04186 4.60682 6.26896Z" fill="url(#paint0_linear_48_112)"/>
<path d="M5.17124 12.6396C3.47406 13.447 1.95366 14.1659 1.80044 14.2366L1.51758 14.3722L4.86481 15.9574C6.70343 16.8295 8.2415 17.5426 8.27097 17.5426C8.37704 17.5367 14.8711 14.4311 14.8888 14.3781C14.9006 14.3486 14.2229 14.0009 13.3861 13.6061C12.5493 13.2112 11.0525 12.5041 10.0624 12.0326L8.25918 11.1782L5.17124 12.6396Z" fill="url(#paint1_linear_48_112)"/>
<path d="M4.10743 22.8281C6.36446 26.7823 8.23843 30.0058 8.26201 29.9999C8.31504 29.9822 16.5122 15.6916 16.4828 15.6681C16.471 15.6622 14.6382 16.5284 12.3989 17.5892C10.1654 18.6558 8.30326 19.528 8.26201 19.528C8.22075 19.528 6.48232 18.7148 4.40208 17.7247C2.31595 16.7288 0.477334 15.8566 0.306437 15.78L0 15.6445L4.10743 22.8281Z" fill="url(#paint2_linear_48_112)"/>
<defs>
<linearGradient id="paint0_linear_48_112" x1="8.27738" y1="12.6713" x2="8.27738" y2="-2.86102e-06" gradientUnits="userSpaceOnUse">
<stop stop-color="#07C6BA"/>
<stop offset="1" stop-color="#02FF93"/>
</linearGradient>
<linearGradient id="paint1_linear_48_112" x1="8.20327" y1="17.5426" x2="8.20327" y2="11.1782" gradientUnits="userSpaceOnUse">
<stop stop-color="#07C6BA"/>
<stop offset="1" stop-color="#02FF93"/>
</linearGradient>
<linearGradient id="paint2_linear_48_112" x1="8.24142" y1="29.9999" x2="8.24142" y2="15.6445" gradientUnits="userSpaceOnUse">
<stop stop-color="#07C6BA"/>
<stop offset="1" stop-color="#05E887"/>
</linearGradient>
</defs>
</svg>
